<?xml version="1.0" encoding="UTF-8" standalone="no"?>
<!-- Created with Inkscape (http://www.inkscape.org/) -->

<svg
   xmlns:dc="http://purl.org/dc/elements/1.1/"
   xmlns:cc="http://creativecommons.org/ns#"
   xmlns:rdf="http://www.w3.org/1999/02/22-rdf-syntax-ns#"
   xmlns:svg="http://www.w3.org/2000/svg"
   xmlns="http://www.w3.org/2000/svg"
   xmlns:sodipodi="http://sodipodi.sourceforge.net/DTD/sodipodi-0.dtd"
   xmlns:inkscape="http://www.inkscape.org/namespaces/inkscape"
   width="40"
   height="40"
   viewBox="0 0 10.583333 16"
   version="1.1"
   id="svg8"
   inkscape:version="0.92.5 (2060ec1f9f, 2020-04-08)"
   sodipodi:docname="arrow3.svg">
  <defs
     id="defs2" />
  <sodipodi:namedview
     id="base"
     pagecolor="#ffffff"
     bordercolor="#666666"
     borderopacity="1.0"
     inkscape:pageopacity="0.0"
     inkscape:pageshadow="2"
     inkscape:zoom="11.2"
     inkscape:cx="-10.260539"
     inkscape:cy="17.69715"
     inkscape:document-units="mm"
     inkscape:current-layer="layer1"
     showgrid="false"
     units="px"
     inkscape:window-width="1854"
     inkscape:window-height="1016"
     inkscape:window-x="66"
     inkscape:window-y="27"
     inkscape:window-maximized="1" />
  <metadata
     id="metadata5">
    <rdf:RDF>
      <cc:Work
         rdf:about="">
        <dc:format>image/svg+xml</dc:format>
        <dc:type
           rdf:resource="http://purl.org/dc/dcmitype/StillImage" />
        <dc:title />
      </cc:Work>
    </rdf:RDF>
  </metadata>
  <g
     inkscape:label="Layer 1"
     inkscape:groupmode="layer"
     id="layer1"
     transform="translate(0,-281)">
    <path
       style="fill:#f9f9f9;stroke-width:0.03584089"
       d="m 11.423055,296.55302 c 1.078432,0.46223 1.296903,-0.93287 0.740853,-1.40626 -0.05446,-1.26847 0.350281,-2.53472 0.683225,-3.77974 -0.08913,-1.26267 -1.702398,0.10603 -1.332911,0.90511 -0.332209,0.70089 -0.192821,2.30635 -0.548517,2.47608 -2.3924199,-3.47786 -3.9141649,-8.13562 -4.1958879,-12.34255 0.020122,-0.51674 0.076665,-1.50836 -0.5395695,-0.61123 -0.4110556,1.0482 -0.290136,1.32487 -0.2935139,2.38958 0.2090593,3.2329 1.8305692,7.63383 3.6334543,10.29385 -1.3239126,-0.54242 -2.1329518,-2.0944 -3.363824,-2.45565 -0.9134477,0.90019 0.7466903,1.6247 1.2955938,2.18334 1.1280395,0.91984 2.5439032,1.50625 3.7924792,2.25297 0.03525,0.0382 0.0887,0.0605 0.128568,0.0946 z"
       id="path864"
       inkscape:connector-curvature="0"
       sodipodi:nodetypes="cccccccccccccc" />
  </g>
</svg>
