<?xml version="1.0" encoding="UTF-8" standalone="no"?>
<!-- Created with Inkscape (http://www.inkscape.org/) -->

<svg
   xmlns:dc="http://purl.org/dc/elements/1.1/"
   xmlns:cc="http://creativecommons.org/ns#"
   xmlns:rdf="http://www.w3.org/1999/02/22-rdf-syntax-ns#"
   xmlns:svg="http://www.w3.org/2000/svg"
   xmlns="http://www.w3.org/2000/svg"
   xmlns:sodipodi="http://sodipodi.sourceforge.net/DTD/sodipodi-0.dtd"
   xmlns:inkscape="http://www.inkscape.org/namespaces/inkscape"
   width="40"
   height="40"
   viewBox="0 0 10.583333 16"
   version="1.1"
   id="svg8"
   inkscape:version="0.92.5 (2060ec1f9f, 2020-04-08)"
   sodipodi:docname="arrow3.svg">
  <defs
     id="defs2" />
  <sodipodi:namedview
     id="base"
     pagecolor="#ffffff"
     bordercolor="#666666"
     borderopacity="1.0"
     inkscape:pageopacity="0.0"
     inkscape:pageshadow="2"
     inkscape:zoom="11.2"
     inkscape:cx="5.4091041"
     inkscape:cy="18.054293"
     inkscape:document-units="mm"
     inkscape:current-layer="layer1"
     showgrid="false"
     units="px"
     inkscape:window-width="1854"
     inkscape:window-height="1016"
     inkscape:window-x="66"
     inkscape:window-y="27"
     inkscape:window-maximized="1" />
  <metadata
     id="metadata5">
    <rdf:RDF>
      <cc:Work
         rdf:about="">
        <dc:format>image/svg+xml</dc:format>
        <dc:type
           rdf:resource="http://purl.org/dc/dcmitype/StillImage" />
        <dc:title />
      </cc:Work>
    </rdf:RDF>
  </metadata>
  <g
     inkscape:label="Layer 1"
     inkscape:groupmode="layer"
     id="layer1"
     transform="translate(0,-281)">
    <path
       style="fill:#f9f9f9;stroke-width:0.03853381"
       d="m -0.50675191,296.55302 c -1.24657789,0.46223 -1.49911139,-0.93287 -0.85636419,-1.40626 0.062952,-1.26847 -0.4048962,-2.53472 -0.7897512,-3.77974 0.1030228,-1.26267 1.96782929,0.10603 1.54073249,0.90511 0.384007,0.70089 0.2228871,2.30635 0.6340412,2.47608 2.76543761,-3.47786 4.52444781,-8.13562 4.85009611,-12.34255 -0.02326,-0.51674 -0.088619,-1.50836 0.6236974,-0.61123 0.475146,1.0482 0.3353729,1.32487 0.3392776,2.38958 -0.2416552,3.2329 -2.1159854,7.63383 -4.1999701,10.29385 1.5303324,-0.54242 2.4655143,-2.0944 3.8882999,-2.45565 1.0558693,0.90019 -0.8631117,1.6247 -1.4975983,2.18334 -1.3039196,0.91984 -2.9405404,1.50625 -4.38378891,2.25297 -0.040736,0.0382 -0.1025328,0.0605 -0.148615,0.0946 z"
       id="path864"
       inkscape:connector-curvature="0"
       sodipodi:nodetypes="cccccccccccccc" />
  </g>
</svg>
