<?xml version="1.0" encoding="UTF-8" standalone="no"?>
<!-- Created with Inkscape (http://www.inkscape.org/) -->

<svg
   xmlns:dc="http://purl.org/dc/elements/1.1/"
   xmlns:cc="http://creativecommons.org/ns#"
   xmlns:rdf="http://www.w3.org/1999/02/22-rdf-syntax-ns#"
   xmlns:svg="http://www.w3.org/2000/svg"
   xmlns="http://www.w3.org/2000/svg"
   xmlns:sodipodi="http://sodipodi.sourceforge.net/DTD/sodipodi-0.dtd"
   xmlns:inkscape="http://www.inkscape.org/namespaces/inkscape"
   width="40"
   height="40"
   viewBox="0 0 10.583333 16"
   version="1.1"
   id="svg8"
   inkscape:version="0.92.5 (2060ec1f9f, 2020-04-08)"
   sodipodi:docname="arrow2.svg">
  <defs
     id="defs2" />
  <sodipodi:namedview
     id="base"
     pagecolor="#ffffff"
     bordercolor="#666666"
     borderopacity="1.0"
     inkscape:pageopacity="0.0"
     inkscape:pageshadow="2"
     inkscape:zoom="11.2"
     inkscape:cx="12.462309"
     inkscape:cy="6.9828643"
     inkscape:document-units="mm"
     inkscape:current-layer="layer1"
     showgrid="false"
     units="px"
     inkscape:window-width="1854"
     inkscape:window-height="1016"
     inkscape:window-x="66"
     inkscape:window-y="27"
     inkscape:window-maximized="1" />
  <metadata
     id="metadata5">
    <rdf:RDF>
      <cc:Work
         rdf:about="">
        <dc:format>image/svg+xml</dc:format>
        <dc:type
           rdf:resource="http://purl.org/dc/dcmitype/StillImage" />
        <dc:title />
      </cc:Work>
    </rdf:RDF>
  </metadata>
  <g
     inkscape:label="Layer 1"
     inkscape:groupmode="layer"
     id="layer1"
     transform="translate(0,-281)">
    <path
       style="fill:#f9f9f9;stroke-width:0.04014246"
       d="m 11.008406,281.19533 c 1.308435,-0.23685 1.03576,1.35174 0.276203,1.73226 -0.515828,1.38076 -0.544805,2.87457 -0.642098,4.32698 -0.550426,1.36563 -1.7636317,-0.54482 -1.0839005,-1.3303 -0.098474,-0.85407 0.6289665,-2.58389 0.3137852,-2.85995 -3.7885199,3.22139 -7.081651,7.95889 -8.89942127,12.51273 -0.16534928,0.57312 -0.46367736,1.67744 -0.79189141,0.5362 -0.0564717,-1.2557 0.17144865,-1.52944 0.55246079,-2.70072 1.38902709,-3.50135 4.69498519,-7.93143 7.56410049,-10.40207 -1.5972531,0.26324 -3.0141723,1.76583 -4.44749,1.8533 -0.6416945,-1.21936 1.3772012,-1.59819 2.1599728,-2.07424 1.5262478,-0.72741 3.2367029,-1.01589 4.8279899,-1.52266 0.05109,-0.0331 0.115731,-0.0443 0.170271,-0.0716 z"
       id="path864"
       inkscape:connector-curvature="0"
       sodipodi:nodetypes="cccccccccccccc" />
  </g>
</svg>
