<?xml version="1.0" encoding="UTF-8" standalone="no"?>
<!-- Created with Inkscape (http://www.inkscape.org/) -->

<svg
   xmlns:dc="http://purl.org/dc/elements/1.1/"
   xmlns:cc="http://creativecommons.org/ns#"
   xmlns:rdf="http://www.w3.org/1999/02/22-rdf-syntax-ns#"
   xmlns:svg="http://www.w3.org/2000/svg"
   xmlns="http://www.w3.org/2000/svg"
   xmlns:sodipodi="http://sodipodi.sourceforge.net/DTD/sodipodi-0.dtd"
   xmlns:inkscape="http://www.inkscape.org/namespaces/inkscape"
   width="40"
   height="40"
   viewBox="0 0 10.583333 16"
   version="1.1"
   id="svg8"
   inkscape:version="0.92.5 (2060ec1f9f, 2020-04-08)"
   sodipodi:docname="arrow0.svg">
  <defs
     id="defs2" />
  <sodipodi:namedview
     id="base"
     pagecolor="#ffffff"
     bordercolor="#666666"
     borderopacity="1.0"
     inkscape:pageopacity="0.0"
     inkscape:pageshadow="2"
     inkscape:zoom="11.2"
     inkscape:cx="46.330388"
     inkscape:cy="22.604521"
     inkscape:document-units="mm"
     inkscape:current-layer="layer1"
     showgrid="false"
     units="px"
     inkscape:window-width="1854"
     inkscape:window-height="1016"
     inkscape:window-x="66"
     inkscape:window-y="27"
     inkscape:window-maximized="1" />
  <metadata
     id="metadata5">
    <rdf:RDF>
      <cc:Work
         rdf:about="">
        <dc:format>image/svg+xml</dc:format>
        <dc:type
           rdf:resource="http://purl.org/dc/dcmitype/StillImage" />
        <dc:title />
      </cc:Work>
    </rdf:RDF>
  </metadata>
  <g
     inkscape:label="Layer 1"
     inkscape:groupmode="layer"
     id="layer1"
     transform="translate(0,-281)">
    <path
       style="fill:#f9f9f9;stroke-width:0.03690225"
       d="m 12.335981,296.79685 c 1.054021,0.0251 1.010558,-1.59072 0.426518,-1.85958 -0.268173,-1.35692 -0.12113,-2.91503 -0.03528,-4.41818 -0.298474,-1.33521 -1.519596,0.87029 -1.047868,1.57647 -0.179119,0.9104 0.223939,2.59655 -0.06808,2.93907 -2.7616317,-2.72578 -4.9403897,-7.12224 -5.9211137,-11.57767 -0.07103,-0.57153 -0.191121,-1.67623 -0.59294,-0.42623 -0.1904012,1.32349 -0.0334,1.57112 0.147334,2.73181 0.746948,3.42717 2.971499,7.49977 5.0593637,9.5965 -1.2896237,-0.004 -2.2884047,-1.33456 -3.4627047,-1.18212 -0.669793,1.38512 0.955009,1.43784 1.547308,1.80269 1.17783,0.50131 2.5581267,0.512 3.8149607,0.77137 0.03848,0.026 0.09058,0.0266 0.132471,0.046 z"
       id="path864"
       inkscape:connector-curvature="0"
       sodipodi:nodetypes="cccccccccccccc" />
  </g>
</svg>
