<?xml version="1.0" encoding="UTF-8" standalone="no"?>
<!-- Created with Inkscape (http://www.inkscape.org/) -->

<svg
   xmlns:dc="http://purl.org/dc/elements/1.1/"
   xmlns:cc="http://creativecommons.org/ns#"
   xmlns:rdf="http://www.w3.org/1999/02/22-rdf-syntax-ns#"
   xmlns:svg="http://www.w3.org/2000/svg"
   xmlns="http://www.w3.org/2000/svg"
   xmlns:sodipodi="http://sodipodi.sourceforge.net/DTD/sodipodi-0.dtd"
   xmlns:inkscape="http://www.inkscape.org/namespaces/inkscape"
   width="40"
   height="40"
   viewBox="0 0 10.583333 16"
   version="1.1"
   id="svg8"
   inkscape:version="0.92.5 (2060ec1f9f, 2020-04-08)"
   sodipodi:docname="arrow0.svg">
  <defs
     id="defs2" />
  <sodipodi:namedview
     id="base"
     pagecolor="#ffffff"
     bordercolor="#666666"
     borderopacity="1.0"
     inkscape:pageopacity="0.0"
     inkscape:pageshadow="2"
     inkscape:zoom="11.2"
     inkscape:cx="30.660745"
     inkscape:cy="22.247378"
     inkscape:document-units="mm"
     inkscape:current-layer="layer1"
     showgrid="false"
     units="px"
     inkscape:window-width="1854"
     inkscape:window-height="1016"
     inkscape:window-x="66"
     inkscape:window-y="27"
     inkscape:window-maximized="1" />
  <metadata
     id="metadata5">
    <rdf:RDF>
      <cc:Work
         rdf:about="">
        <dc:format>image/svg+xml</dc:format>
        <dc:type
           rdf:resource="http://purl.org/dc/dcmitype/StillImage" />
        <dc:title />
      </cc:Work>
    </rdf:RDF>
  </metadata>
  <g
     inkscape:label="Layer 1"
     inkscape:groupmode="layer"
     id="layer1"
     transform="translate(0,-281)">
    <path
       style="fill:#f9f9f9;stroke-width:0.03824689"
       d="m -1.6441788,296.79685 c -1.1322327,0.0251 -1.0855447,-1.59072 -0.458167,-1.85958 0.2880723,-1.35692 0.1301182,-2.91503 0.037898,-4.41818 0.3206217,-1.33521 1.63235485,0.87029 1.12562314,1.57647 0.19241019,0.9104 -0.24055604,2.59655 0.0731322,2.93907 2.96655356,-2.72578 5.30698236,-7.12224 6.36047926,-11.57767 0.076301,-0.57153 0.2053028,-1.67623 0.636938,-0.42623 0.2045296,1.32349 0.035878,1.57112 -0.1582666,2.73181 -0.802374,3.42717 -3.1919938,7.49977 -5.43478464,9.5965 1.38531784,-0.004 2.45821164,-1.33456 3.71964844,-1.18212 0.7194937,1.38512 -1.0258738,1.43784 -1.6621232,1.80269 -1.2652288,0.50131 -2.74794786,0.512 -4.098043,0.77137 -0.041335,0.026 -0.097302,0.0266 -0.1423007,0.046 z"
       id="path864"
       inkscape:connector-curvature="0"
       sodipodi:nodetypes="cccccccccccccc" />
  </g>
</svg>
